<?xml version="1.0" encoding="UTF-8" standalone="no"?><!DOCTYPE svg PUBLIC "-//W3C//DTD SVG 1.1//EN" "http://www.w3.org/Graphics/SVG/1.1/DTD/svg11.dtd"><svg width="100%" height="100%" viewBox="0 0 200 200" version="1.1" xmlns="http://www.w3.org/2000/svg" xmlns:xlink="http://www.w3.org/1999/xlink" xml:space="preserve" style="fill-rule:evenodd;clip-rule:evenodd;stroke-linecap:round;stroke-linejoin:round;"><g id="g3457"><path id="path3414" d="M2,100c0,54.124 43.876,98 98,98c54.124,0 98,-43.876 98,-98c0,-54.124 -43.876,-98 -98,-98c-54.124,0 -98,43.876 -98,98l0,0Z" style="fill:#d7f4d7;fill-rule:nonzero;stroke:#87de87;stroke-width:3.26px;"/><g id="g3384"><clipPath id="_clip1"><path d="M2,100c0,53.761 44.239,98 98,98c53.761,0 98,-44.239 98,-98c0,-53.761 -44.239,-98 -98,-98c-53.761,0 -98,44.239 -98,98l0,0Z"/></clipPath><g clip-path="url(#_clip1)"><path id="path3382" d="M94.956,68.794c1.477,0.236 8.887,1.486 12.417,2.493c4.335,1.237 9.904,3.517 14.191,4.912c3.551,1.156 8.558,1.189 11.052,3.972c2.797,3.12 2.072,13.253 2.208,13.799l-18.968,8.673c0.192,-1.728 -10.2,-12.212 -11.428,-13.714c0,0 -8.374,-0.59 -10.011,-1.273c-1.637,-0.683 -12.417,-3.934 -12.417,-3.934l0.054,-0.162c0.099,-0.295 -9.262,1.56 -10.345,1.514c-1.089,-0.047 -8.67,0.047 -8.67,0.047c-4.348,2.775 -8.45,2.673 -10.439,3.025c-10.468,1.854 -10.361,-4.698 -9.732,-6.177c0.358,-0.843 11.548,-5.922 16.571,-8.308c1.247,-0.593 2.465,-1.363 3.79,-1.75c1.046,-0.306 2.928,-0.49 4.003,-0.669c1.755,-0.292 5.716,-1.601 7.471,-1.898c2.289,-0.388 5.341,-0.654 7.65,-0.906c1.581,-0.172 4.392,-1.391 5.973,-1.296c1.208,0.073 3.856,1.208 6.63,1.652l0,0Z" style="fill:#fff;fill-rule:nonzero;stroke:#000;stroke-width:1.15px;"/><path id="path3380" d="M96.649,59.034c1.743,0.279 10.487,1.756 14.653,2.946c5.116,1.46 11.687,4.154 16.746,5.801c4.192,1.366 10.1,1.404 13.043,4.691c3.301,3.685 2.444,15.653 2.606,16.298l-22.384,10.243c0.226,-2.041 -12.553,-12.628 -14.002,-14.403c0,0 -9.366,-2.491 -11.298,-3.297c-1.932,-0.807 -14.652,-4.647 -14.652,-4.647l0.063,-0.191c0.116,-0.349 -10.93,1.842 -12.207,1.788c-1.286,-0.055 -10.232,0.055 -10.232,0.055c-5.131,3.278 -9.972,3.158 -12.319,3.574c-12.353,2.189 -12.226,-5.549 -11.485,-7.296c0.423,-0.996 13.627,-6.995 19.555,-9.813c1.473,-0.7 2.909,-1.609 4.474,-2.067c1.234,-0.362 3.454,-0.579 4.723,-0.79c2.071,-0.345 6.745,-1.89 8.816,-2.241c2.702,-0.459 6.303,-0.773 9.028,-1.07c1.865,-0.204 5.183,-1.644 7.048,-1.531c1.426,0.086 4.55,1.427 7.824,1.95l0,0Z" style="fill:#fff;fill-rule:nonzero;stroke:#000;stroke-width:1.15px;"/><path id="path3378" d="M90.197,52.985c1.743,0.279 10.487,1.756 14.653,2.945c5.116,1.461 11.895,3.617 16.746,5.802c6.611,2.978 21.762,4.717 21.915,9.126c0.478,13.768 2.444,27.349 2.605,27.994l-28.029,-14.761c0.226,-2.041 -11.343,-4.159 -12.793,-5.934c0,0 -13.801,-2.087 -15.733,-2.894c-1.933,-0.806 -14.653,-4.646 -14.653,-4.646l0.064,-0.191c0.116,-0.35 -10.931,1.842 -12.208,1.787c-1.286,-0.055 -10.232,0.056 -10.232,0.056c-5.131,3.278 -9.971,3.157 -12.318,3.573c-12.353,2.19 -12.227,-5.549 -11.486,-7.295c0.423,-0.996 13.628,-6.995 19.556,-9.814c1.472,-0.7 2.909,-1.609 4.473,-2.067c1.234,-0.361 3.455,-0.578 4.723,-0.79c2.072,-0.345 6.746,-1.89 8.816,-2.241c2.702,-0.458 6.304,-0.773 9.028,-1.07c1.866,-0.203 5.183,-1.643 7.049,-1.53c1.426,0.086 4.55,1.426 7.824,1.95l0,0Z" style="fill:#fff;fill-rule:nonzero;stroke:#000;stroke-width:1.15px;"/><path id="path3373" d="M95.732,55.74c1.743,0.278 10.487,1.755 14.653,2.945c5.115,1.461 11.687,4.154 16.745,5.802c4.192,1.365 10.1,1.403 13.043,4.69c3.301,3.686 2.445,15.653 2.606,16.298c0.161,0.646 12.2,39.792 12.2,39.792l33.396,36.504l-31.263,27.059c0,0 -23.431,-24.475 -27.233,-26.764c-5.817,-3.504 -12.827,-2.063 -20.604,-7.917c-7.973,-6.001 -18.332,-14.341 -20.425,-15.47c-2.093,-1.13 -13.872,-10.165 -13.872,-10.165c0,0 -11.602,-7.881 -13.695,-8.527c-2.094,-0.645 -10.133,-7.135 -10.133,-7.135c0,0 -2.594,-8.654 -3.69,-11.134c-2.467,-5.588 -8.944,-11.428 -4.877,-15.981c2.78,-3.112 12.267,-1.067 13.89,0.37c1.252,1.108 8.126,8.794 9.785,13.692c0.452,1.332 1.286,1.911 1.286,1.911c0,0 9.116,5.557 13.534,6.176c3.933,0.551 8.065,1.853 11.641,0.123c6.171,-2.984 19.288,-13.823 19.61,-16.727c0.227,-2.041 -2.47,-7.789 -3.919,-9.563c0,0 -11.382,-2.895 -13.314,-3.701c-1.933,-0.807 -14.653,-4.647 -14.653,-4.647l0.064,-0.191c0.116,-0.349 -10.931,1.842 -12.208,1.788c-1.286,-0.055 -10.232,0.055 -10.232,0.055c-5.131,3.278 -9.971,3.158 -12.319,3.574c-12.352,2.189 -12.226,-5.549 -11.485,-7.296c0.423,-0.996 13.628,-6.995 19.555,-9.813c1.473,-0.7 2.909,-1.609 4.474,-2.067c1.234,-0.361 3.454,-0.579 4.723,-0.79c2.072,-0.345 6.746,-1.89 8.816,-2.241c2.702,-0.458 6.304,-0.773 9.028,-1.07c1.866,-0.204 5.183,-1.644 7.048,-1.531c1.427,0.087 4.551,1.427 7.825,1.951l0,0Z" style="fill:#fff;fill-rule:nonzero;stroke:#000;stroke-width:1.15px;"/></g></g></g></svg>