<?xml version="1.0" encoding="UTF-8" standalone="no"?><!DOCTYPE svg PUBLIC "-//W3C//DTD SVG 1.1//EN" "http://www.w3.org/Graphics/SVG/1.1/DTD/svg11.dtd"><svg width="100%" height="100%" viewBox="0 0 200 200" version="1.1" xmlns="http://www.w3.org/2000/svg" xmlns:xlink="http://www.w3.org/1999/xlink" xml:space="preserve" style="fill-rule:evenodd;clip-rule:evenodd;stroke-linecap:round;stroke-linejoin:round;"><g id="g3479"><path id="use3422" d="M2,99.992c0,54.124 43.876,98 98,98c54.124,0 98,-43.876 98,-98c0,-54.124 -43.876,-98 -98,-98c-54.124,0 -98,43.876 -98,98l0,0Z" style="fill:#fff6d5;fill-rule:nonzero;stroke:#fd5;stroke-width:3.26px;"/><g id="g3260"><clipPath id="_clip1"><path d="M2,99.992c0,54.124 43.876,98 98,98c54.124,0 98,-43.876 98,-98c0,-54.124 -43.876,-98 -98,-98c-54.124,0 -98,43.876 -98,98l0,0Z"/></clipPath><g clip-path="url(#_clip1)"><path id="path3240" d="M216.109,156.375c0.238,-0.057 -27.329,-12.631 -39.394,-19.254c-1.195,-0.656 -0.438,-6.546 -1.55,-9.074c-1.351,-3.074 -10.665,-30.925 -11.508,-33.419c-0.227,-0.671 -6.308,-6.761 -11.447,-13.428c-5.184,-6.726 -8.429,-12.676 -11.127,-13.793c-2.649,-1.098 -5.204,-1.144 -9.693,-2.375c-3.842,-1.054 -6.88,-2.784 -8.233,-3.379c-2.42,-1.065 -5.826,-2.251 -8.189,-1.328c-2.183,0.852 -1.335,2.716 -1.771,4.869c-2.301,-2.452 -5.797,-4.786 -8.669,-7.259c-2.835,-2.441 -5.045,-5.023 -7.487,-7.127c-2.273,-1.958 -5.571,-4.092 -8.235,-6.363c-2.401,-2.047 -4.163,-4.248 -6.371,-5.809c-4.036,-2.852 -10.686,-7.704 -15.492,-8.853c-3.577,-0.854 -6.598,0.355 -8.41,4.648c-0.581,1.374 0.593,4.118 1.328,5.533c-6.467,-4.364 -7.123,-6.711 -10.402,-7.746c-6.252,-1.973 -9.22,1.238 -9.738,6.197c-0.411,3.929 3.677,7.963 7.082,11.287c-5.609,-3.965 -9.896,2.011 -10.18,6.639c-0.129,2.089 1.367,3.752 2.823,5.792c1.902,2.668 3.722,5.814 5.144,8.151c3.086,5.069 2.085,2.706 13.279,17.705c-10.058,-8.405 -9.704,-11.732 -13.943,-11.951c-3.002,-0.155 -3.796,1.986 -4.648,4.869c-1.093,3.702 3.013,10.026 5.091,13.279c3.84,6.012 10.274,13.098 14.828,18.59c3.635,4.385 8.903,9.884 12.393,14.386c3.42,4.41 6.561,11.444 10.623,15.27c14.924,14.059 37.953,34.324 49.575,38.509c17.77,6.399 60.468,30.108 60.197,30.763c-0.423,1.022 24.124,-55.55 24.124,-55.329Z" style="fill:#fff;fill-rule:nonzero;stroke:#000;stroke-width:1.15px;"/><path id="path3242" d="M59.418,39.521l24.547,22.152c7.245,7.205 14.778,16.135 21.486,20.119" style="fill:#fff;fill-opacity:0.164706;fill-rule:nonzero;stroke:#000;stroke-width:1.15px;"/><path id="path3244" d="M46.582,49.702c7.627,8.574 14.048,16.545 23.815,26.189c5.953,7.937 15.849,12.884 18.677,18.959" style="fill:#fff;fill-opacity:0.164706;fill-rule:nonzero;stroke:#000;stroke-width:1.15px;"/><path id="path3246" d="M57.205,87.325c10.891,14.334 15.049,11.841 25.23,29.877" style="fill:#fff;fill-opacity:0.164706;fill-rule:nonzero;stroke:#000;stroke-width:1.15px;"/><path id="path3248" d="M159.895,99.276c-15.321,-14.156 -30.963,-20.272 -46.698,-34.304" style="fill:#fff;fill-opacity:0.164706;fill-rule:nonzero;stroke:#000;stroke-width:1.15px;"/></g></g></g></svg>