<?xml version="1.0" encoding="UTF-8" standalone="no"?><!DOCTYPE svg PUBLIC "-//W3C//DTD SVG 1.1//EN" "http://www.w3.org/Graphics/SVG/1.1/DTD/svg11.dtd"><svg width="100%" height="100%" viewBox="0 0 200 200" version="1.1" xmlns="http://www.w3.org/2000/svg" xmlns:xlink="http://www.w3.org/1999/xlink" xml:space="preserve" style="fill-rule:evenodd;clip-rule:evenodd;stroke-linecap:round;stroke-linejoin:round;"><g id="g3488"><path id="use3420" d="M2,100c0,54.124 43.876,98 98,98c54.124,0 98,-43.876 98,-98c0,-54.124 -43.876,-98 -98,-98c-54.124,0 -98,43.876 -98,98l0,0Z" style="fill:#ffd5d5;fill-rule:nonzero;stroke:#ff8080;stroke-width:3.26px;"/><g id="g3267"><clipPath id="_clip1"><path d="M2,100c0,54.124 43.876,98 98,98c54.124,0 98,-43.876 98,-98c0,-54.124 -43.876,-98 -98,-98c-54.124,0 -98,43.876 -98,98l0,0Z"/></clipPath><g clip-path="url(#_clip1)"><path id="path2432" d="M202.667,132.918c0,0 -26.571,-11.373 -34.833,-14.474c-3.894,-1.461 -9.658,-1.938 -13.279,-3.983c-4.215,-2.381 -9.519,-6.659 -11.951,-10.845c-1.066,-1.834 -4.479,-18.021 -6.418,-25.451c-0.358,-1.371 -3.765,-9.561 -6.418,-13.721c-3.466,-5.435 -10.532,-12.318 -14.386,-17.484c-1.266,-1.698 -2.264,-4.478 -3.762,-5.976c-2.996,-2.996 -7.964,-6.091 -11.951,-7.525c-1.953,-0.702 -4.057,-1.011 -5.976,-0.221c-0.7,0.288 -1.685,1.435 -2.434,1.328c-5.264,-0.75 -15.695,-1.555 -21.468,1.328c-2.654,1.326 -5.19,4.824 -6.418,7.525c-1.077,2.37 0.467,5.38 0.801,7.085c-2.341,1.149 -11.018,12.464 -12.53,16.817c-0.589,1.694 0.079,2.801 -0.443,4.517c-1.387,1.748 -3.629,5.426 -4.648,7.876c-1.205,2.9 -1.85,7.095 -2.434,10.181c-0.799,4.216 -3.037,10.002 -1.992,14.164c0.821,3.271 4.973,5.045 6.197,8.188c0.218,0.561 0.689,2.445 1.106,2.878c6.307,6.53 15.998,11.652 26.116,21.246c4.907,4.653 9.69,10.025 15.492,13.5c2.701,1.618 7.977,4.007 10.844,5.312c5.12,2.329 9.788,6.464 15.492,8.852c3.489,1.461 13.09,4.876 18.148,7.304c9.571,4.593 22.726,13.721 28.992,16.377l38.153,-54.798l0,0Z" style="fill:#fff;fill-rule:nonzero;stroke:#000;stroke-width:1.15px;"/><path id="path3224" d="M63.91,50.685c1.455,-0.791 3.927,-1.581 6.06,-2.372" style="fill:#fff;fill-opacity:0.0941176;fill-rule:nonzero;stroke:#000;stroke-width:1.15px;"/><path id="path3226" d="M86.393,45.328c-1.566,0.587 -8.481,-1.75 -12.471,-0.44c-3.963,1.302 -5.494,7.218 -7.816,8.695" style="fill:#fff;fill-opacity:0.0941176;fill-rule:nonzero;stroke:#000;stroke-width:1.15px;"/><path id="path3228" d="M69.707,59.643c-2.268,1.587 -7.899,1.053 -10.451,2.81c-2.553,1.757 -3.407,6.634 -5.621,9.397" style="fill:#fff;fill-opacity:0.0941176;fill-rule:nonzero;stroke:#000;stroke-width:1.15px;"/><path id="path3230" d="M50.913,72.201c1.953,-2.41 3.314,-3.338 4.83,-4.654" style="fill:#fff;fill-opacity:0.0941176;fill-rule:nonzero;stroke:#000;stroke-width:1.15px;"/><path id="path3232" d="M47.487,82.037c0.336,0.671 -2.355,3.93 -2.898,5.709c-0.543,1.779 0.18,5.161 0,6.059" style="fill:#fff;fill-opacity:0.0941176;fill-rule:nonzero;stroke:#000;stroke-width:1.15px;"/></g></g></g></svg>