<?xml version="1.0" encoding="UTF-8" standalone="no"?><!DOCTYPE svg PUBLIC "-//W3C//DTD SVG 1.1//EN" "http://www.w3.org/Graphics/SVG/1.1/DTD/svg11.dtd"><svg width="100%" height="100%" viewBox="0 0 560 309" version="1.1" xmlns="http://www.w3.org/2000/svg" xmlns:xlink="http://www.w3.org/1999/xlink" xml:space="preserve" style="fill-rule:evenodd;clip-rule:evenodd;stroke-linejoin:round;stroke-miterlimit:1.41421;"><g id="Keys"><g id="other-keys"><g opacity="0.6"><path id="K_kb3b" d="M53,115.594c0,-3.312 -2.689,-6 -6,-6l-36,0c-3.311,0 -6,2.688 -6,6l0,32c0,3.311 2.689,6 6,6l36,0c3.311,0 6,-2.689 6,-6l0,-32Z" style="fill:#e6e6e6;stroke:#bfbfbf;stroke-width:1px;"/><path id="K_kb3c" d="M107,115.594c0,-3.312 -2.689,-6 -6,-6l-36,0c-3.311,0 -6,2.688 -6,6l0,32c0,3.311 2.689,6 6,6l36,0c3.311,0 6,-2.689 6,-6l0,-32Z" style="fill:#e6e6e6;stroke:#bfbfbf;stroke-width:1px;"/><path id="K_kb3d" d="M161,115.594c0,-3.312 -2.689,-6 -6,-6l-36,0c-3.311,0 -6,2.688 -6,6l0,32c0,3.311 2.689,6 6,6l36,0c3.311,0 6,-2.689 6,-6l0,-32Z" style="fill:#e6e6e6;stroke:#bfbfbf;stroke-width:1px;"/><path id="K_kb3e" d="M215,115.594c0,-3.312 -2.689,-6 -6,-6l-36,0c-3.311,0 -6,2.688 -6,6l0,32c0,3.311 2.689,6 6,6l36,0c3.311,0 6,-2.689 6,-6l0,-32Z" style="fill:#e6e6e6;stroke:#bfbfbf;stroke-width:1px;"/><path id="K_kb3f" d="M269,115.594c0,-3.312 -2.689,-6 -6,-6l-36,0c-3.311,0 -6,2.688 -6,6l0,32c0,3.311 2.689,6 6,6l36,0c3.311,0 6,-2.689 6,-6l0,-32Z" style="fill:#e6e6e6;stroke:#bfbfbf;stroke-width:1px;"/><path id="K_kb3g" d="M323,115.594c0,-3.312 -2.689,-6 -6,-6l-36,0c-3.311,0 -6,2.688 -6,6l0,32c0,3.311 2.689,6 6,6l36,0c3.311,0 6,-2.689 6,-6l0,-32Z" style="fill:#e6e6e6;stroke:#bfbfbf;stroke-width:1px;"/><path id="K_kb3h" d="M377,115.594c0,-3.312 -2.689,-6 -6,-6l-36,0c-3.311,0 -6,2.688 -6,6l0,32c0,3.311 2.689,6 6,6l36,0c3.311,0 6,-2.689 6,-6l0,-32Z" style="fill:#e6e6e6;stroke:#bfbfbf;stroke-width:1px;"/><path id="K_kb3i" d="M431,115.594c0,-3.312 -2.689,-6 -6,-6l-36,0c-3.311,0 -6,2.688 -6,6l0,32c0,3.311 2.689,6 6,6l36,0c3.311,0 6,-2.689 6,-6l0,-32Z" style="fill:#e6e6e6;stroke:#bfbfbf;stroke-width:1px;"/><path id="K_kb3j" d="M485,115.594c0,-3.312 -2.689,-6 -6,-6l-36,0c-3.311,0 -6,2.688 -6,6l0,32c0,3.311 2.689,6 6,6l36,0c3.311,0 6,-2.689 6,-6l0,-32Z" style="fill:#e6e6e6;stroke:#bfbfbf;stroke-width:1px;"/><path id="K_kb3k" d="M539,115.594c0,-3.312 -2.689,-6 -6,-6l-36,0c-3.311,0 -6,2.688 -6,6l0,32c0,3.311 2.689,6 6,6l36,0c3.311,0 6,-2.689 6,-6l0,-32Z" style="fill:#e6e6e6;stroke:#bfbfbf;stroke-width:1px;"/><path id="K_kb4f" d="M285,165.594c0,-3.312 -2.689,-6 -6,-6l-36,0c-3.311,0 -6,2.688 -6,6l0,32c0,3.311 2.689,6 6,6l36,0c3.311,0 6,-2.689 6,-6l0,-32Z" style="fill:#e6e6e6;stroke:#bfbfbf;stroke-width:1px;"/><path id="K_kb4g" d="M339,165.594c0,-3.312 -2.689,-6 -6,-6l-36,0c-3.311,0 -6,2.688 -6,6l0,32c0,3.311 2.689,6 6,6l36,0c3.311,0 6,-2.689 6,-6l0,-32Z" style="fill:#e6e6e6;stroke:#bfbfbf;stroke-width:1px;"/><path id="K_kb5c" d="M89,215.594c0,-3.312 -2.689,-6 -6,-6l-36,0c-3.311,0 -6,2.688 -6,6l0,32c0,3.311 2.689,6 6,6l36,0c3.311,0 6,-2.689 6,-6l0,-32Z" style="fill:#e6e6e6;stroke:#bfbfbf;stroke-width:1px;"/><path id="K_kb5d" d="M143,215.594c0,-3.312 -2.689,-6 -6,-6l-36,0c-3.311,0 -6,2.688 -6,6l0,32c0,3.311 2.689,6 6,6l36,0c3.311,0 6,-2.689 6,-6l0,-32Z" style="fill:#e6e6e6;stroke:#bfbfbf;stroke-width:1px;"/><path id="K_kb5e" d="M197,215.594c0,-3.312 -2.689,-6 -6,-6l-36,0c-3.311,0 -6,2.688 -6,6l0,32c0,3.311 2.689,6 6,6l36,0c3.311,0 6,-2.689 6,-6l0,-32Z" style="fill:#e6e6e6;stroke:#bfbfbf;stroke-width:1px;"/><path id="K_kb5g" d="M305,215.594c0,-3.312 -2.689,-6 -6,-6l-36,0c-3.311,0 -6,2.688 -6,6l0,32c0,3.311 2.689,6 6,6l36,0c3.311,0 6,-2.689 6,-6l0,-32Z" style="fill:#e6e6e6;stroke:#bfbfbf;stroke-width:1px;"/><path id="K_kb5i" d="M413,215.594c0,-3.312 -2.689,-6 -6,-6l-36,0c-3.311,0 -6,2.688 -6,6l0,32c0,3.311 2.689,6 6,6l36,0c3.311,0 6,-2.689 6,-6l0,-32Z" style="fill:#e6e6e6;stroke:#bfbfbf;stroke-width:1px;"/><path id="K_kb5j" d="M467,215.594c0,-3.312 -2.689,-6 -6,-6l-36,0c-3.311,0 -6,2.688 -6,6l0,32c0,3.311 2.689,6 6,6l36,0c3.311,0 6,-2.689 6,-6l0,-32Z" style="fill:#e6e6e6;stroke:#bfbfbf;stroke-width:1px;"/><path id="K_kb5k" d="M521,215.594c0,-3.312 -2.689,-6 -6,-6l-36,0c-3.311,0 -6,2.688 -6,6l0,32c0,3.311 2.689,6 6,6l36,0c3.311,0 6,-2.689 6,-6l0,-32Z" style="fill:#e6e6e6;stroke:#bfbfbf;stroke-width:1px;"/><path id="K_kb6d" d="M475,265.594c0,-3.312 -2.689,-6 -6,-6l-352,0c-3.311,0 -6,2.688 -6,6l0,32c0,3.311 2.689,6 6,6l352,0c3.311,0 6,-2.689 6,-6l0,-32Z" style="fill:#e6e6e6;stroke:#bfbfbf;stroke-width:1px;"/><g id="incriptions"><g id="T_stdletters"><text id="T_kb3b2" x="22px" y="138.594px" style="font-family:'Arial-BoldMT', 'Arial', sans-serif;font-weight:700;font-size:16px;fill:#ccc;">Q</text><text id="T_kb3c2" x="76px" y="138.594px" style="font-family:'Arial-BoldMT', 'Arial', sans-serif;font-weight:700;font-size:16px;fill:#ccc;">W</text><text id="T_kb3d2" x="130px" y="138.594px" style="font-family:'Arial-BoldMT', 'Arial', sans-serif;font-weight:700;font-size:16px;fill:#ccc;">E</text><text id="T_kb3e2" x="184px" y="138.594px" style="font-family:'Arial-BoldMT', 'Arial', sans-serif;font-weight:700;font-size:16px;fill:#ccc;">R</text><text id="T_kb3f2" x="238px" y="138.594px" style="font-family:'Arial-BoldMT', 'Arial', sans-serif;font-weight:700;font-size:16px;fill:#ccc;">T</text><text id="T_kb3g2" x="292px" y="138.594px" style="font-family:'Arial-BoldMT', 'Arial', sans-serif;font-weight:700;font-size:16px;fill:#ccc;">Y</text><text id="T_kb3h2" x="346px" y="138.594px" style="font-family:'Arial-BoldMT', 'Arial', sans-serif;font-weight:700;font-size:16px;fill:#ccc;">U</text><text id="T_kb3i2" x="400px" y="138.594px" style="font-family:'Arial-BoldMT', 'Arial', sans-serif;font-weight:700;font-size:16px;fill:#ccc;">I</text><text id="T_kb3j2" x="454px" y="138.594px" style="font-family:'Arial-BoldMT', 'Arial', sans-serif;font-weight:700;font-size:16px;fill:#ccc;">O</text><text id="T_kb3k2" x="508px" y="138.594px" style="font-family:'Arial-BoldMT', 'Arial', sans-serif;font-weight:700;font-size:16px;fill:#ccc;">P</text><text id="T_kb4g2" x="254px" y="188.594px" style="font-family:'Arial-BoldMT', 'Arial', sans-serif;font-weight:700;font-size:16px;fill:#ccc;">G</text><text id="T_kb4h2" x="308px" y="188.594px" style="font-family:'Arial-BoldMT', 'Arial', sans-serif;font-weight:700;font-size:16px;fill:#ccc;">H</text><text id="T_kb5c2" x="58px" y="238.594px" style="font-family:'Arial-BoldMT', 'Arial', sans-serif;font-weight:700;font-size:16px;fill:#ccc;">Z</text><text id="T_kb5d2" x="112px" y="238.594px" style="font-family:'Arial-BoldMT', 'Arial', sans-serif;font-weight:700;font-size:16px;fill:#ccc;">X</text><text id="T_kb5e2" x="166px" y="238.594px" style="font-family:'Arial-BoldMT', 'Arial', sans-serif;font-weight:700;font-size:16px;fill:#ccc;">C</text><text id="T_kb5g2" x="274px" y="238.594px" style="font-family:'Arial-BoldMT', 'Arial', sans-serif;font-weight:700;font-size:16px;fill:#ccc;">B</text><text id="T_kb5i2" x="380px" y="238.594px" style="font-family:'Arial-BoldMT', 'Arial', sans-serif;font-weight:700;font-size:16px;fill:#ccc;">M</text><text id="T_kb5j1" x="434px" y="236.594px" style="font-family:'Arial-BoldMT', 'Arial', sans-serif;font-weight:700;font-size:16px;fill:#ccc;">,</text><text id="T_kb5k1" x="488px" y="236.594px" style="font-family:'Arial-BoldMT', 'Arial', sans-serif;font-weight:700;font-size:16px;fill:#ccc;">.</text></g></g></g></g><path d="M212,201.339c0,-2.947 -2.392,-5.339 -5.339,-5.339l-147.322,0c-2.947,0 -5.339,2.392 -5.339,5.339l0,24.916c0,2.946 2.392,5.339 5.339,5.339l147.322,0c2.947,0 5.339,-2.393 5.339,-5.339l0,-24.916Z" style="fill-opacity:0.75;"/><path d="M519,200.551c0,-3.134 -2.544,-5.677 -5.677,-5.677l-156.646,0c-3.133,0 -5.677,2.543 -5.677,5.677l0,26.492c0,3.133 2.544,5.677 5.677,5.677l156.646,0c3.133,0 5.677,-2.544 5.677,-5.677l0,-26.492Z" style="fill-opacity:0.75;"/><g id="Spock"><path id="K_kb5h" d="M359,215.594c0,-3.312 -2.689,-6 -6,-6l-36,0c-3.311,0 -6,2.688 -6,6l0,32c0,3.311 2.689,6 6,6l36,0c3.311,0 6,-2.689 6,-6l0,-32Z" style="fill:#d5e5ff;stroke:#80b3ff;stroke-width:1px;"/><path id="K_kb5f" d="M251,215.594c0,-3.312 -2.689,-6 -6,-6l-36,0c-3.311,0 -6,2.688 -6,6l0,32c0,3.311 2.689,6 6,6l36,0c3.311,0 6,-2.689 6,-6l0,-32Z" style="fill:#d5e5ff;stroke:#80b3ff;stroke-width:1px;"/></g><g id="Scissors"><path id="K_kb4h" d="M393,165.594c0,-3.312 -2.689,-6 -6,-6l-36,0c-3.311,0 -6,2.688 -6,6l0,32c0,3.311 2.689,6 6,6l36,0c3.311,0 6,-2.689 6,-6l0,-32Z" style="fill:#f6d5ff;stroke:#e580ff;stroke-width:1px;"/><path id="K_kb4e" d="M231,165.594c0,-3.312 -2.689,-6 -6,-6l-36,0c-3.311,0 -6,2.688 -6,6l0,32c0,3.311 2.689,6 6,6l36,0c3.311,0 6,-2.689 6,-6l0,-32Z" style="fill:#f6d5ff;stroke:#e580ff;stroke-width:1px;"/></g><g id="paper"><path id="K_kb4i" d="M447,165.594c0,-3.312 -2.689,-6 -6,-6l-36,0c-3.311,0 -6,2.688 -6,6l0,32c0,3.311 2.689,6 6,6l36,0c3.311,0 6,-2.689 6,-6l0,-32Z" style="fill:#fff6d5;stroke:#fd5;stroke-width:1px;"/><path id="K_kb4d" d="M177,165.594c0,-3.312 -2.689,-6 -6,-6l-36,0c-3.311,0 -6,2.688 -6,6l0,32c0,3.311 2.689,6 6,6l36,0c3.311,0 6,-2.689 6,-6l0,-32Z" style="fill:#fff6d5;stroke:#fd5;stroke-width:1px;"/></g><g id="rock"><path id="K_kb4c" d="M123,165.594c0,-3.312 -2.689,-6 -6,-6l-36,0c-3.311,0 -6,2.688 -6,6l0,32c0,3.311 2.689,6 6,6l36,0c3.311,0 6,-2.689 6,-6l0,-32Z" style="fill:#ffd5d5;stroke:#ff8080;stroke-width:1px;"/><path id="K_kb4j" d="M501,165.594c0,-3.312 -2.689,-6 -6,-6l-36,0c-3.311,0 -6,2.688 -6,6l0,32c0,3.311 2.689,6 6,6l36,0c3.311,0 6,-2.689 6,-6l0,-32Z" style="fill:#ffd5d5;stroke:#ff8080;stroke-width:1px;"/></g><g id="lizard"><path id="K_kb4k" d="M555,165.594c0,-3.312 -2.689,-6 -6,-6l-36,0c-3.311,0 -6,2.688 -6,6l0,32c0,3.311 2.689,6 6,6l36,0c3.311,0 6,-2.689 6,-6l0,-32Z" style="fill:#d7f4d7;stroke:#87de87;stroke-width:1px;"/><path id="K_kb4b" d="M69,165.594c0,-3.312 -2.689,-6 -6,-6l-36,0c-3.311,0 -6,2.688 -6,6l0,32c0,3.311 2.689,6 6,6l36,0c3.311,0 6,-2.689 6,-6l0,-32Z" style="fill:#d7f4d7;stroke:#87de87;stroke-width:1px;"/></g><g id="player-2"><text id="T_kb4l1" x="524px" y="186.594px" style="font-family:'Arial-BoldMT', 'Arial', sans-serif;font-weight:700;font-size:16px;">;</text><text id="T_kb4k2" x="470px" y="188.594px" style="font-family:'Arial-BoldMT', 'Arial', sans-serif;font-weight:700;font-size:16px;">L</text><text id="T_kb4j2" x="416px" y="188.594px" style="font-family:'Arial-BoldMT', 'Arial', sans-serif;font-weight:700;font-size:16px;">K</text><text id="T_kb4i2" x="362px" y="188.594px" style="font-family:'Arial-BoldMT', 'Arial', sans-serif;font-weight:700;font-size:16px;">J</text><text id="T_kb5h2" x="328px" y="238.594px" style="font-family:'Arial-BoldMT', 'Arial', sans-serif;font-weight:700;font-size:16px;">N</text></g><g id="Player-1"><text id="T_kb5f2" x="220px" y="238.594px" style="font-family:'Arial-BoldMT', 'Arial', sans-serif;font-weight:700;font-size:16px;">V</text><text id="T_kb4f2" x="200px" y="188.594px" style="font-family:'Arial-BoldMT', 'Arial', sans-serif;font-weight:700;font-size:16px;">F</text><text id="T_kb4e2" x="146px" y="188.594px" style="font-family:'Arial-BoldMT', 'Arial', sans-serif;font-weight:700;font-size:16px;">D</text><text id="T_kb4d2" x="92px" y="188.594px" style="font-family:'Arial-BoldMT', 'Arial', sans-serif;font-weight:700;font-size:16px;">S</text><text id="T_kb4c2" x="38px" y="188.594px" style="font-family:'Arial-BoldMT', 'Arial', sans-serif;font-weight:700;font-size:16px;">A</text></g></g><g id="powers"><g id="g3488"><path id="use3420" d="M215.271,35.765c0,16.99 13.773,30.764 30.764,30.764c16.991,0 30.765,-13.774 30.765,-30.764c0,-16.991 -13.774,-30.765 -30.765,-30.765c-16.991,0 -30.764,13.774 -30.764,30.765l0,0Z" style="fill:#ffd5d5;fill-rule:nonzero;stroke:#ff8080;stroke-width:1.02px;stroke-linecap:round;stroke-miterlimit:4;"/><g id="g3267"><clipPath id="_clip1"><path d="M215.271,35.765c0,16.99 13.773,30.764 30.764,30.764c16.991,0 30.765,-13.774 30.765,-30.764c0,-16.991 -13.774,-30.765 -30.765,-30.765c-16.991,0 -30.764,13.774 -30.764,30.765l0,0Z"/></clipPath><g clip-path="url(#_clip1)"><path id="path2432" d="M278.265,46.098c0,0 -8.342,-3.57 -10.935,-4.543c-1.223,-0.459 -3.032,-0.609 -4.169,-1.251c-1.323,-0.747 -2.988,-2.09 -3.751,-3.404c-0.335,-0.576 -1.407,-5.658 -2.015,-7.99c-0.113,-0.43 -1.182,-3.001 -2.015,-4.307c-1.088,-1.707 -3.306,-3.867 -4.516,-5.489c-0.398,-0.533 -0.711,-1.406 -1.181,-1.876c-0.941,-0.94 -2.5,-1.912 -3.752,-2.362c-0.613,-0.221 -1.273,-0.318 -1.876,-0.07c-0.219,0.091 -0.529,0.451 -0.764,0.417c-1.652,-0.235 -4.927,-0.488 -6.739,0.417c-0.833,0.416 -1.629,1.514 -2.015,2.362c-0.338,0.744 0.147,1.689 0.252,2.225c-0.735,0.36 -3.459,3.912 -3.934,5.279c-0.185,0.532 0.025,0.879 -0.139,1.418c-0.435,0.549 -1.139,1.703 -1.459,2.472c-0.379,0.911 -0.581,2.228 -0.764,3.196c-0.251,1.324 -0.954,3.14 -0.626,4.447c0.258,1.027 1.562,1.584 1.946,2.57c0.068,0.176 0.216,0.768 0.347,0.904c1.98,2.05 5.022,3.658 8.198,6.669c1.541,1.461 3.042,3.147 4.864,4.238c0.848,0.508 2.504,1.258 3.404,1.668c1.607,0.731 3.073,2.029 4.863,2.779c1.095,0.458 4.109,1.53 5.697,2.292c3.005,1.442 7.134,4.308 9.102,5.142l11.977,-17.203l0,0Z" style="fill:#fff;fill-rule:nonzero;stroke:#000;stroke-width:0.36px;stroke-linecap:round;stroke-miterlimit:4;"/><path id="path3224" d="M234.706,20.283c0.456,-0.248 1.233,-0.496 1.902,-0.744" style="fill:#fff;fill-opacity:0.0941176;fill-rule:nonzero;stroke:#000;stroke-width:0.36px;stroke-linecap:round;stroke-miterlimit:4;"/><path id="path3226" d="M241.763,18.602c-0.491,0.184 -2.662,-0.55 -3.914,-0.138c-1.244,0.408 -1.725,2.266 -2.454,2.729" style="fill:#fff;fill-opacity:0.0941176;fill-rule:nonzero;stroke:#000;stroke-width:0.36px;stroke-linecap:round;stroke-miterlimit:4;"/><path id="path3228" d="M236.525,23.095c-0.712,0.499 -2.479,0.331 -3.281,0.883c-0.801,0.551 -1.069,2.082 -1.764,2.95" style="fill:#fff;fill-opacity:0.0941176;fill-rule:nonzero;stroke:#000;stroke-width:0.36px;stroke-linecap:round;stroke-miterlimit:4;"/><path id="path3230" d="M230.625,27.038c0.614,-0.757 1.041,-1.048 1.517,-1.461" style="fill:#fff;fill-opacity:0.0941176;fill-rule:nonzero;stroke:#000;stroke-width:0.36px;stroke-linecap:round;stroke-miterlimit:4;"/><path id="path3232" d="M229.55,30.126c0.105,0.21 -0.739,1.233 -0.91,1.792c-0.17,0.558 0.057,1.62 0,1.902" style="fill:#fff;fill-opacity:0.0941176;fill-rule:nonzero;stroke:#000;stroke-width:0.36px;stroke-linecap:round;stroke-miterlimit:4;"/></g></g></g><g id="g3479"><path id="use3422" d="M301.607,37.992c0,16.991 13.773,30.765 30.764,30.765c16.991,0 30.765,-13.774 30.765,-30.765c0,-16.991 -13.774,-30.765 -30.765,-30.765c-16.991,0 -30.764,13.774 -30.764,30.765l0,0Z" style="fill:#fff6d5;fill-rule:nonzero;stroke:#fd5;stroke-width:1.02px;stroke-linecap:round;stroke-miterlimit:4;"/><g id="g3260"><clipPath id="_clip2"><path d="M301.607,37.992c0,16.991 13.773,30.765 30.764,30.765c16.991,0 30.765,-13.774 30.765,-30.765c0,-16.991 -13.774,-30.765 -30.765,-30.765c-16.991,0 -30.764,13.774 -30.764,30.765l0,0Z"/></clipPath><g clip-path="url(#_clip2)"><path id="path3240" d="M368.82,55.692c0.075,-0.018 -8.579,-3.965 -12.366,-6.044c-0.375,-0.206 -0.138,-2.055 -0.487,-2.849c-0.424,-0.965 -3.348,-9.708 -3.612,-10.491c-0.072,-0.21 -1.981,-2.122 -3.594,-4.215c-1.627,-2.112 -2.646,-3.979 -3.493,-4.33c-0.831,-0.345 -1.634,-0.359 -3.043,-0.746c-1.206,-0.331 -2.16,-0.874 -2.584,-1.061c-0.76,-0.334 -1.829,-0.706 -2.571,-0.417c-0.685,0.268 -0.419,0.853 -0.556,1.529c-0.722,-0.77 -1.82,-1.502 -2.722,-2.279c-0.889,-0.766 -1.583,-1.577 -2.35,-2.237c-0.713,-0.615 -1.749,-1.285 -2.585,-1.998c-0.754,-0.642 -1.307,-1.333 -2,-1.823c-1.267,-0.896 -3.354,-2.419 -4.863,-2.779c-1.123,-0.269 -2.072,0.111 -2.64,1.459c-0.183,0.431 0.186,1.293 0.416,1.737c-2.03,-1.37 -2.236,-2.107 -3.265,-2.432c-1.962,-0.619 -2.894,0.389 -3.057,1.945c-0.129,1.234 1.154,2.5 2.223,3.544c-1.76,-1.245 -3.106,0.631 -3.196,2.084c-0.04,0.656 0.43,1.178 0.887,1.818c0.597,0.838 1.168,1.825 1.615,2.559c0.968,1.591 0.654,0.849 4.168,5.558c-3.157,-2.638 -3.046,-3.683 -4.377,-3.752c-0.942,-0.048 -1.192,0.624 -1.459,1.529c-0.343,1.162 0.946,3.147 1.598,4.168c1.206,1.888 3.226,4.112 4.655,5.836c1.141,1.377 2.795,3.103 3.891,4.516c1.073,1.385 2.059,3.593 3.334,4.794c4.685,4.414 11.915,10.775 15.563,12.089c5.579,2.009 18.983,9.452 18.898,9.657c-0.133,0.321 7.572,-17.438 7.572,-17.369Z" style="fill:#fff;fill-rule:nonzero;stroke:#000;stroke-width:0.36px;stroke-linecap:round;stroke-miterlimit:4;"/><path id="path3242" d="M319.631,19.009l7.706,6.954c2.275,2.261 4.64,5.065 6.745,6.316" style="fill:#fff;fill-opacity:0.164706;fill-rule:nonzero;stroke:#000;stroke-width:0.36px;stroke-linecap:round;stroke-miterlimit:4;"/><path id="path3244" d="M315.602,22.205c2.394,2.691 4.41,5.194 7.476,8.221c1.869,2.492 4.975,4.045 5.863,5.952" style="fill:#fff;fill-opacity:0.164706;fill-rule:nonzero;stroke:#000;stroke-width:0.36px;stroke-linecap:round;stroke-miterlimit:4;"/><path id="path3246" d="M318.937,34.016c3.419,4.499 4.724,3.717 7.92,9.379" style="fill:#fff;fill-opacity:0.164706;fill-rule:nonzero;stroke:#000;stroke-width:0.36px;stroke-linecap:round;stroke-miterlimit:4;"/><path id="path3248" d="M351.174,37.767c-4.81,-4.444 -9.72,-6.364 -14.66,-10.769" style="fill:#fff;fill-opacity:0.164706;fill-rule:nonzero;stroke:#000;stroke-width:0.36px;stroke-linecap:round;stroke-miterlimit:4;"/></g></g></g><g id="scissors"><path id="use3424" d="M325.687,119.564c0,16.991 13.774,30.764 30.765,30.764c16.991,0 30.764,-13.773 30.764,-30.764c0,-16.991 -13.773,-30.765 -30.764,-30.765c-16.991,0 -30.765,13.774 -30.765,30.765l0,0Z" style="fill:#f6d5ff;fill-rule:nonzero;stroke:#e580ff;stroke-width:1.02px;stroke-linecap:round;stroke-miterlimit:4;"/><g id="g3281"><clipPath id="_clip3"><path d="M325.687,119.564c0,16.991 13.774,30.764 30.765,30.764c16.99,0 30.764,-13.773 30.764,-30.764c0,-16.991 -13.774,-30.765 -30.764,-30.765c-16.991,0 -30.765,13.774 -30.765,30.765l0,0Z"/></clipPath><g clip-path="url(#_clip3)"><path id="path3275" d="M392.408,137.055c-0.056,-0.122 -11.115,-5.13 -13.756,-6.669c-0.448,-0.262 -7.183,-10.143 -11.672,-14.729c-0.634,-0.648 -0.852,-1.744 -1.491,-2.712c-0.519,-0.786 -1.483,-1.441 -1.844,-2.082c-1.273,-2.258 -2.494,-5.515 -3.752,-7.781c-0.813,-1.467 -2.057,-3.329 -2.987,-4.725c-0.805,-1.208 -2.21,-3.45 -3.196,-4.516c-1.072,-1.158 -3.257,-1.367 -3.613,0.903c-0.206,1.318 1.568,3.979 2.293,5.628c0.65,1.478 1.577,3.424 2.154,4.933c0.385,1.007 0.668,2.202 1.101,3.408c0.396,1.1 0.963,2.209 0.914,3.192c-0.031,0.615 -0.211,1.426 -0.695,1.806c-0.572,0.449 -4.259,-3.093 -6.878,-4.238c-1.279,-0.559 -2.526,-1.49 -4.933,-2.57c-0.966,-0.434 -2.108,-1.27 -3.057,-1.737c-0.917,-0.451 -3.227,-1.311 -4.238,-1.459c-1.342,-0.196 -2.717,1.502 -2.154,2.987c0.201,0.53 3.265,2.277 4.655,3.266c1.885,1.342 4.572,2.925 6.253,4.516c2.125,2.011 6.657,3.472 7.225,4.585c0.09,0.175 -0.17,0.471 -0.347,0.556c-0.322,0.154 -0.834,-0.22 -1.181,-0.139c-0.895,0.209 -1.984,0.96 -2.571,1.667c-1.699,2.048 0.453,3.749 0.834,4.794c0.136,0.374 -0.997,1.011 -1.112,2.223c-0.107,1.132 0.393,2.338 1.181,2.988c0.966,0.796 2.812,1.123 3.613,2.084c0.199,0.238 0.108,0.776 0.348,0.973c2.801,2.303 5.045,4.38 7.225,5.975c2.146,1.569 6.142,3.993 7.295,3.821c0.653,-0.098 4.541,2.514 8.546,4.307c2.434,1.09 7.573,4.655 7.573,4.655l8.267,-15.91Z" style="fill:#fff;fill-rule:nonzero;stroke:#000;stroke-width:0.36px;stroke-linecap:round;stroke-miterlimit:4;"/><path id="path3277" d="M349.403,126.217c0.696,-1.004 2.076,-1.404 2.153,-1.945" style="fill:#fff;fill-opacity:0.0588235;fill-rule:nonzero;stroke:#000;stroke-width:0.36px;stroke-linecap:round;stroke-miterlimit:4;"/><path id="path3279" d="M352.321,132.4l-0.973,-0.833l-1.251,-0.348" style="fill:#fff;fill-opacity:0.0588235;fill-rule:nonzero;stroke:#000;stroke-width:0.36px;stroke-linecap:round;stroke-miterlimit:4;"/></g></g></g><g id="g3457"><path id="path3414" d="M187.216,116.371c0,16.991 13.774,30.765 30.765,30.765c16.991,0 30.764,-13.774 30.764,-30.765c0,-16.991 -13.773,-30.765 -30.764,-30.765c-16.991,0 -30.765,13.774 -30.765,30.765l0,0Z" style="fill:#d7f4d7;fill-rule:nonzero;stroke:#87de87;stroke-width:1.02px;stroke-linecap:round;stroke-miterlimit:4;"/><g id="g3384"><clipPath id="_clip4"><path d="M187.216,116.371c0,16.877 13.888,30.765 30.765,30.765c16.877,0 30.765,-13.888 30.765,-30.765c0,-16.877 -13.888,-30.765 -30.765,-30.765c-16.877,0 -30.765,13.888 -30.765,30.765l0,0Z"/></clipPath><g clip-path="url(#_clip4)"><path id="path3382" d="M216.398,106.575c0.463,0.074 2.789,0.466 3.898,0.782c1.36,0.389 3.109,1.104 4.454,1.542c1.115,0.363 2.687,0.373 3.47,1.247c0.878,0.98 0.65,4.161 0.693,4.332l-5.954,2.723c0.06,-0.543 -3.203,-3.834 -3.588,-4.306c0,0 -2.629,-0.185 -3.143,-0.399c-0.514,-0.214 -3.898,-1.235 -3.898,-1.235l0.017,-0.051c0.031,-0.093 -2.907,0.49 -3.247,0.475c-0.342,-0.014 -2.722,0.015 -2.722,0.015c-1.365,0.871 -2.653,0.839 -3.277,0.95c-3.286,0.582 -3.253,-1.475 -3.055,-1.939c0.112,-0.265 3.625,-1.86 5.202,-2.609c0.391,-0.186 0.774,-0.427 1.19,-0.549c0.328,-0.096 0.919,-0.154 1.256,-0.21c0.551,-0.092 1.795,-0.502 2.346,-0.596c0.718,-0.121 1.676,-0.205 2.401,-0.284c0.496,-0.054 1.379,-0.437 1.875,-0.407c0.38,0.023 1.211,0.379 2.082,0.519l0,0Z" style="fill:#fff;fill-rule:nonzero;stroke:#000;stroke-width:0.36px;stroke-linecap:round;stroke-miterlimit:4;"/><path id="path3380" d="M216.929,103.511c0.547,0.087 3.292,0.551 4.6,0.924c1.606,0.459 3.669,1.304 5.257,1.822c1.316,0.428 3.17,0.44 4.094,1.472c1.037,1.157 0.768,4.914 0.818,5.117l-7.026,3.215c0.071,-0.641 -3.941,-3.964 -4.396,-4.521c0,0 -2.94,-0.782 -3.547,-1.035c-0.606,-0.254 -4.599,-1.459 -4.599,-1.459l0.02,-0.06c0.036,-0.11 -3.432,0.578 -3.833,0.561c-0.403,-0.017 -3.212,0.018 -3.212,0.018c-1.611,1.029 -3.13,0.991 -3.867,1.121c-3.878,0.688 -3.838,-1.742 -3.605,-2.29c0.132,-0.313 4.278,-2.196 6.139,-3.081c0.462,-0.219 0.913,-0.505 1.404,-0.648c0.387,-0.114 1.084,-0.182 1.483,-0.248c0.65,-0.109 2.117,-0.594 2.767,-0.704c0.848,-0.144 1.979,-0.243 2.834,-0.336c0.586,-0.064 1.627,-0.516 2.213,-0.48c0.448,0.027 1.428,0.448 2.456,0.612l0,0Z" style="fill:#fff;fill-rule:nonzero;stroke:#000;stroke-width:0.36px;stroke-linecap:round;stroke-miterlimit:4;"/><path id="path3378" d="M214.903,101.612c0.548,0.087 3.293,0.551 4.6,0.924c1.606,0.459 3.734,1.136 5.257,1.822c2.076,0.935 6.832,1.481 6.88,2.865c0.15,4.322 0.767,8.585 0.818,8.788l-8.799,-4.634c0.071,-0.641 -3.561,-1.306 -4.016,-1.863c0,0 -4.333,-0.655 -4.939,-0.909c-0.607,-0.253 -4.6,-1.458 -4.6,-1.458l0.02,-0.06c0.036,-0.11 -3.431,0.578 -3.832,0.561c-0.404,-0.017 -3.212,0.017 -3.212,0.017c-1.611,1.029 -3.131,0.992 -3.867,1.122c-3.878,0.688 -3.839,-1.742 -3.606,-2.29c0.133,-0.313 4.278,-2.196 6.139,-3.081c0.462,-0.219 0.913,-0.505 1.404,-0.649c0.388,-0.113 1.085,-0.181 1.483,-0.247c0.65,-0.109 2.118,-0.594 2.768,-0.704c0.848,-0.144 1.978,-0.243 2.833,-0.336c0.586,-0.064 1.628,-0.516 2.213,-0.48c0.448,0.027 1.429,0.447 2.456,0.612l0,0Z" style="fill:#fff;fill-rule:nonzero;stroke:#000;stroke-width:0.36px;stroke-linecap:round;stroke-miterlimit:4;"/><path id="path3373" d="M216.641,102.477c0.547,0.087 3.292,0.551 4.6,0.924c1.606,0.459 3.669,1.304 5.257,1.821c1.316,0.429 3.17,0.441 4.094,1.473c1.036,1.157 0.768,4.914 0.818,5.116c0.051,0.203 3.83,12.492 3.83,12.492l10.484,11.46l-9.814,8.494c0,0 -7.356,-7.683 -8.549,-8.402c-1.826,-1.1 -4.027,-0.648 -6.468,-2.485c-2.503,-1.884 -5.755,-4.502 -6.412,-4.857c-0.657,-0.354 -4.355,-3.191 -4.355,-3.191c0,0 -3.642,-2.474 -4.299,-2.677c-0.658,-0.202 -3.181,-2.24 -3.181,-2.24c0,0 -0.815,-2.716 -1.159,-3.495c-0.774,-1.754 -2.807,-3.587 -1.531,-5.017c0.873,-0.977 3.851,-0.334 4.361,0.117c0.393,0.347 2.551,2.76 3.072,4.298c0.141,0.418 0.403,0.6 0.403,0.6c0,0 2.862,1.744 4.249,1.939c1.235,0.173 2.532,0.581 3.654,0.038c1.937,-0.936 6.055,-4.339 6.156,-5.251c0.071,-0.641 -0.775,-2.445 -1.23,-3.002c0,0 -3.573,-0.909 -4.18,-1.162c-0.606,-0.253 -4.6,-1.458 -4.599,-1.458l0.019,-0.06c0.037,-0.11 -3.431,0.578 -3.832,0.561c-0.404,-0.017 -3.212,0.017 -3.212,0.017c-1.611,1.029 -3.13,0.991 -3.867,1.122c-3.878,0.687 -3.838,-1.742 -3.605,-2.29c0.132,-0.313 4.278,-2.196 6.138,-3.081c0.463,-0.22 0.914,-0.505 1.405,-0.649c0.387,-0.113 1.084,-0.181 1.482,-0.248c0.651,-0.108 2.118,-0.593 2.768,-0.703c0.848,-0.144 1.979,-0.243 2.834,-0.336c0.586,-0.064 1.627,-0.516 2.213,-0.481c0.447,0.027 1.428,0.448 2.456,0.613l0,0Z" style="fill:#fff;fill-rule:nonzero;stroke:#000;stroke-width:0.36px;stroke-linecap:round;stroke-miterlimit:4;"/></g></g></g><g id="spock"><path id="use3418" d="M257.669,167.483c0,16.991 13.773,30.765 30.764,30.765c16.991,0 30.765,-13.774 30.765,-30.765c0,-16.99 -13.774,-30.764 -30.765,-30.764c-16.991,0 -30.764,13.774 -30.764,30.764l0,0Z" style="fill:#d5e5ff;fill-rule:nonzero;stroke:#80b3ff;stroke-width:1.02px;stroke-linecap:round;stroke-miterlimit:4;"/><g id="g3409"><clipPath id="_clip5"><path d="M257.668,167.483c0,16.991 13.774,30.765 30.765,30.765c16.991,0 30.765,-13.774 30.765,-30.765c0,-16.99 -13.774,-30.764 -30.765,-30.764c-16.991,0 -30.765,13.774 -30.765,30.764l0,0Z"/></clipPath><g clip-path="url(#_clip5)"><path id="path3403" d="M294.186,203.693c0.228,-1.142 -0.085,-14.152 0.228,-15.986c1.444,-1.487 4.694,-2.696 6.775,-4.949c1.834,-1.985 2.573,-4.742 4.263,-6.851c0.88,-1.097 2.649,-3.212 3.731,-4.111c0.916,-0.762 3.328,-1.929 3.349,-3.121c0.02,-1.137 -1.538,-1.592 -2.664,-1.751c-1.957,-0.276 -5.81,1.742 -6.547,2.665c-0.203,0.254 -3.024,2.731 -4.111,4.263c-1.136,-0.238 -0.301,-4.324 -0.381,-5.481c-0.112,-1.642 -0.152,-3.502 -0.076,-3.807c0.076,-0.304 0.457,-2.436 0.533,-3.273c0.076,-0.837 0.685,-3.273 0.685,-3.654c0,-0.381 0.381,-3.197 0.381,-3.73c0,-0.533 0.009,-1.988 0.152,-3.121c0.141,-1.113 0.353,-3.609 0.152,-5.405c-0.15,-1.345 -1.775,-2.643 -3.197,-1.599c-0.585,0.43 -0.827,1.503 -1.142,2.132c0.162,-0.743 0.596,-2.944 0.381,-4.187c-0.424,-2.449 -3.039,-2.339 -3.73,-1.066c-0.7,1.288 -1.128,4.275 -1.675,6.014c-0.656,2.087 -1.03,5.018 -1.446,7.308c-0.844,1.711 -1.216,4.372 -2.132,5.938c-0.259,0.443 -0.782,0.947 -1.294,0.913c-0.534,-0.035 -0.533,0 -1.37,-1.674c-0.838,-1.675 -0.726,-1.455 -1.142,-2.132c-0.609,-0.99 -0.914,-2.055 -1.37,-2.741c-0.254,-0.38 -1.068,-2.241 -1.447,-3.349c-0.325,-0.95 -0.71,-1.928 -0.989,-2.893c-0.415,-1.431 -0.92,-3.173 -1.447,-4.567c-0.733,-1.939 -2.79,-1.984 -3.73,-0.076c-0.694,1.408 0.245,3.554 0.533,5.404c-0.949,-1.321 -2.733,-0.116 -2.969,0.838c-0.291,1.175 -0.098,2.836 0.076,4.034c0.099,0.68 0.463,1.537 0.609,2.208c0.183,0.836 0.382,1.763 0.609,2.588c0.215,0.781 0.604,1.965 0.837,2.741c0.317,1.051 0.502,2.512 0.762,3.578c0.163,0.667 0.512,1.527 0.609,2.207c0.229,1.606 0.05,3.784 0.076,5.405c0.02,1.302 0.021,3.039 0.076,4.34c0.101,2.401 0.133,5.623 0.533,7.993c0.201,1.191 0.913,2.684 1.066,3.882c0.573,4.509 -0.762,15.225 -0.229,15.149c0.533,-0.076 16.824,0.076 16.672,-0.076l0,0Z" style="fill:#fff;fill-rule:nonzero;stroke:#000;stroke-width:0.36px;stroke-linecap:round;stroke-miterlimit:4;"/><path id="path3405" d="M296.317,145.761c-0.626,3.455 -1.772,8.372 -3.121,16.444" style="fill:#fff;fill-opacity:0.133333;fill-rule:nonzero;stroke:#000;stroke-width:0.36px;stroke-linecap:round;stroke-miterlimit:4;"/><path id="path3407" d="M275.459,148.654c3.182,8.957 1.866,3.864 5.557,15.225" style="fill:#fff;fill-opacity:0.133333;fill-rule:nonzero;stroke:#000;stroke-width:0.36px;stroke-linecap:round;stroke-miterlimit:4;"/></g></g></g><g id="g12143"><path id="path3502" d="M263.304,149.691l-20.577,-14.875l0.3,-0.412l20.577,14.875l-0.3,0.412Z" style="fill:#87de87;stroke:#87de87;stroke-width:1px;stroke-linejoin:miter;stroke-miterlimit:4;"/><path id="path12149" d="M254.046,142.609l-0.926,-5.757l9.28,11.796l-14.111,-5.113l5.757,-0.926Z" style="fill:#87de87;stroke:#87de87;stroke-width:1.1px;stroke-linejoin:miter;stroke-miterlimit:4;"/></g><g id="g12151"><path id="path3504" d="M313.263,149.273l-0.288,-0.426l17.315,-11.761l0.289,0.426l-17.316,11.761Z" style="fill:#80b3ff;stroke:#80b3ff;stroke-width:1px;stroke-linejoin:miter;stroke-miterlimit:4;"/><path id="path12157" d="M320.848,143.776l-6.168,-1.177l15.348,-5.062l-10.357,12.407l1.177,-6.168l0,0Z" style="fill:#80b3ff;stroke:#80b3ff;stroke-width:1.18px;stroke-linejoin:miter;stroke-miterlimit:4;"/></g><g id="g12159"><path id="path3506" d="M346.301,90.221l-5.893,-22.518l0.492,-0.125l5.892,22.518l-0.491,0.125Z" style="fill:#e580ff;stroke:#e580ff;stroke-width:1px;stroke-linejoin:miter;stroke-miterlimit:4;"/><path id="path12165" d="M343.662,78.357l-3.074,5.25l0.354,-15.657l7.971,13.481l-5.251,-3.074Z" style="fill:#e580ff;stroke:#e580ff;stroke-width:1.15px;stroke-linejoin:miter;stroke-miterlimit:4;"/></g><g id="g12167"><path id="path3508" d="M228.503,86.911l-0.48,-0.168l7.49,-21.517l0.48,0.168l-7.49,21.517Z" style="fill:#ff8080;stroke:#ff8080;stroke-width:1px;stroke-linejoin:miter;stroke-miterlimit:4;"/><path id="path12173" d="M231.408,76.421l5.426,-2.624l-8.927,12.686l0.877,-15.487l2.624,5.425Z" style="fill:#ff8080;stroke:#ff8080;stroke-width:1.14px;stroke-linejoin:miter;stroke-miterlimit:4;"/></g><g id="g12175"><path id="path3510" d="M277.09,36.876l0.014,-0.518l23.983,0.446l-0.014,0.518l-23.983,-0.446Z" style="fill:#fd5;stroke:#fd5;stroke-width:1px;stroke-linejoin:miter;stroke-miterlimit:4;"/><path id="path12181" d="M289.176,36.592l4.044,4.197l-14.346,-4.388l14.499,-3.853l-4.197,4.044l0,0Z" style="fill:#fd5;stroke:#fd5;stroke-width:1.1px;stroke-linejoin:miter;stroke-miterlimit:4;"/></g><g id="g12183"><path id="path3512" d="M249.14,117.163l0.014,-0.518l76.133,1.357l-0.01,0.507l-76.137,-1.346Z" style="fill:#e580ff;stroke:#e580ff;stroke-width:1px;stroke-linejoin:miter;stroke-miterlimit:4;"/><path id="path12189" d="M260.226,116.871l4.047,4.194l-14.349,-4.377l14.496,-3.865l-4.194,4.048Z" style="fill:#e580ff;stroke:#e580ff;stroke-width:1.1px;stroke-linejoin:miter;stroke-miterlimit:4;"/></g><g id="g12191"><path id="path3514" d="M243.352,98.595l-0.289,-0.426l63.944,-42.399l0.278,0.423l-63.933,42.402Z" style="fill:#87de87;stroke:#87de87;stroke-width:1px;stroke-linejoin:miter;stroke-miterlimit:4;"/><path id="path12197" d="M297.504,62.387l-6.183,-1.252l15.476,-4.911l-10.546,12.346l1.253,-6.183l0,0Z" style="fill:#87de87;stroke:#87de87;stroke-width:1.19px;stroke-linejoin:miter;stroke-miterlimit:4;"/></g><g id="g12199"><path id="path3516" d="M278.591,138.256l-22.586,-72.65l0.491,-0.161l22.583,72.661l-0.488,0.15Z" style="fill:#80b3ff;stroke:#80b3ff;stroke-width:1px;stroke-linejoin:miter;stroke-miterlimit:4;"/><path id="path12205" d="M259.596,76.146l-2.874,5.466l-0.367,-15.891l8.707,13.298l-5.466,-2.873Z" style="fill:#80b3ff;stroke:#80b3ff;stroke-width:1.16px;stroke-linejoin:miter;stroke-miterlimit:4;"/></g><g id="g12207"><path id="path3518" d="M298.725,137.95l-0.48,-0.168l23.836,-70.254l0.479,0.168l-23.835,70.254Z" style="fill:#fd5;stroke:#fd5;stroke-width:1px;stroke-linejoin:miter;stroke-miterlimit:4;"/><path id="path12213" d="M301.611,126.436l5.416,-2.672l-8.846,12.781l0.759,-15.525l2.671,5.416l0,0Z" style="fill:#fd5;stroke:#fd5;stroke-width:1.14px;stroke-linejoin:miter;stroke-miterlimit:4;"/></g><g id="g12215"><path id="path3520" d="M331.479,101.285l-61.09,-46.672l0.311,-0.409l61.09,46.672l-0.311,0.409Z" style="fill:#ff8080;stroke:#ff8080;stroke-width:1px;stroke-linejoin:miter;stroke-miterlimit:4;"/><path id="path12221" d="M322.352,94.067l-0.774,-5.787l8.974,12.053l-13.987,-5.493l5.787,-0.773Z" style="fill:#ff8080;stroke:#ff8080;stroke-width:1.1px;stroke-linejoin:miter;stroke-miterlimit:4;"/></g></g></svg>