<?xml version="1.0" encoding="UTF-8" standalone="no"?><!DOCTYPE svg PUBLIC "-//W3C//DTD SVG 1.1//EN" "http://www.w3.org/Graphics/SVG/1.1/DTD/svg11.dtd"><svg width="100%" height="100%" viewBox="0 0 200 200" version="1.1" xmlns="http://www.w3.org/2000/svg" xmlns:xlink="http://www.w3.org/1999/xlink" xml:space="preserve" style="fill-rule:evenodd;clip-rule:evenodd;stroke-linecap:round;stroke-linejoin:round;"><g id="scissors"><path id="use3424" d="M2,100c0,54.124 43.876,98 98,98c54.124,0 98,-43.876 98,-98c0,-54.124 -43.876,-98 -98,-98c-54.124,0 -98,43.876 -98,98l0,0Z" style="fill:#f6d5ff;fill-rule:nonzero;stroke:#e580ff;stroke-width:3.26px;"/><g id="g3281"><clipPath id="_clip1"><path d="M2,100c0,54.124 43.876,98 98,98c54.123,0 98,-43.876 98,-98c0,-54.124 -43.877,-98 -98,-98c-54.124,0 -98,43.876 -98,98l0,0Z"/></clipPath><g clip-path="url(#_clip1)"><path id="path3275" d="M214.539,155.719c-0.178,-0.391 -35.409,-16.341 -43.821,-21.246c-1.428,-0.833 -22.882,-32.308 -37.181,-46.919c-2.018,-2.062 -2.712,-5.554 -4.749,-8.638c-1.655,-2.505 -4.723,-4.59 -5.874,-6.632c-4.054,-7.192 -7.945,-17.569 -11.951,-24.788c-2.591,-4.67 -6.554,-10.604 -9.516,-15.049c-2.564,-3.847 -7.041,-10.991 -10.181,-14.385c-3.414,-3.691 -10.375,-4.355 -11.508,2.877c-0.658,4.197 4.994,12.675 7.303,17.926c2.071,4.709 5.024,10.909 6.861,15.714c1.227,3.209 2.129,7.015 3.51,10.855c1.259,3.505 3.064,7.037 2.908,10.169c-0.098,1.96 -0.669,4.544 -2.213,5.755c-1.821,1.428 -13.567,-9.854 -21.91,-13.501c-4.074,-1.781 -8.045,-4.746 -15.713,-8.188c-3.076,-1.381 -6.714,-4.045 -9.738,-5.533c-2.922,-1.438 -10.279,-4.177 -13.501,-4.648c-4.273,-0.624 -8.653,4.785 -6.86,9.517c0.639,1.686 10.401,7.251 14.828,10.402c6.005,4.274 14.564,9.319 19.918,14.385c6.771,6.407 21.205,11.062 23.017,14.607c0.285,0.558 -0.542,1.499 -1.107,1.77c-1.024,0.492 -2.655,-0.7 -3.762,-0.442c-2.852,0.665 -6.319,3.058 -8.189,5.311c-5.413,6.523 1.442,11.94 2.656,15.271c0.434,1.19 -3.175,3.22 -3.541,7.082c-0.341,3.603 1.249,7.446 3.762,9.517c3.077,2.534 8.955,3.578 11.509,6.639c0.632,0.758 0.344,2.472 1.106,3.098c8.925,7.337 16.071,13.954 23.017,19.033c6.835,4.999 19.565,12.722 23.238,12.173c2.081,-0.311 14.464,8.009 27.222,13.721c7.753,3.472 24.123,14.828 24.123,14.828l26.337,-50.681Z" style="fill:#fff;fill-rule:nonzero;stroke:#000;stroke-width:1.15px;"/><path id="path3277" d="M77.545,121.194c2.217,-3.197 6.616,-4.471 6.861,-6.197" style="fill:#fff;fill-opacity:0.0588235;fill-rule:nonzero;stroke:#000;stroke-width:1.15px;"/><path id="path3279" d="M86.84,140.891l-3.098,-2.656l-3.984,-1.106" style="fill:#fff;fill-opacity:0.0588235;fill-rule:nonzero;stroke:#000;stroke-width:1.15px;"/></g></g></g></svg>