<?xml version="1.0" encoding="UTF-8" standalone="no"?><!DOCTYPE svg PUBLIC "-//W3C//DTD SVG 1.1//EN" "http://www.w3.org/Graphics/SVG/1.1/DTD/svg11.dtd"><svg width="100%" height="100%" viewBox="0 0 200 200" version="1.1" xmlns="http://www.w3.org/2000/svg" xmlns:xlink="http://www.w3.org/1999/xlink" xml:space="preserve" style="fill-rule:evenodd;clip-rule:evenodd;stroke-linecap:round;stroke-linejoin:round;"><g id="spock"><path id="use3418" d="M2,100c0,54.124 43.876,98 98,98c54.124,0 98,-43.876 98,-98c0,-54.124 -43.876,-98 -98,-98c-54.124,0 -98,43.876 -98,98l0,0Z" style="fill:#d5e5ff;fill-rule:nonzero;stroke:#80b3ff;stroke-width:3.26px;"/><g id="g3409"><clipPath id="_clip1"><path d="M2,100c0,54.124 43.876,98 98,98c54.124,0 98,-43.876 98,-98c0,-54.124 -43.876,-98 -98,-98c-54.124,0 -98,43.876 -98,98l0,0Z"/></clipPath><g clip-path="url(#_clip1)"><path id="path3403" d="M118.325,215.345c0.727,-3.637 -0.272,-45.081 0.727,-50.924c4.599,-4.737 14.953,-8.588 21.582,-15.762c5.843,-6.324 8.195,-15.108 13.58,-21.825c2.801,-3.494 8.439,-10.233 11.883,-13.095c2.92,-2.427 10.602,-6.145 10.669,-9.942c0.065,-3.624 -4.898,-5.071 -8.487,-5.578c-6.234,-0.88 -18.507,5.547 -20.855,8.488c-0.647,0.81 -9.631,8.699 -13.094,13.579c-3.618,-0.757 -0.961,-13.772 -1.213,-17.459c-0.357,-5.231 -0.485,-11.155 -0.242,-12.125c0.242,-0.97 1.455,-7.76 1.697,-10.428c0.243,-2.667 2.182,-10.427 2.182,-11.639c0,-1.213 1.213,-10.185 1.213,-11.883c0,-1.697 0.029,-6.333 0.485,-9.942c0.448,-3.546 1.123,-11.496 0.485,-17.217c-0.478,-4.286 -5.656,-8.419 -10.185,-5.093c-1.862,1.368 -2.636,4.786 -3.637,6.79c0.516,-2.366 1.898,-9.379 1.212,-13.337c-1.351,-7.799 -9.679,-7.45 -11.882,-3.395c-2.228,4.102 -3.593,13.617 -5.335,19.157c-2.091,6.649 -3.28,15.984 -4.608,23.28c-2.686,5.451 -3.873,13.926 -6.79,18.914c-0.825,1.412 -2.491,3.018 -4.122,2.91c-1.701,-0.112 -1.697,0 -4.365,-5.335c-2.667,-5.334 -2.31,-4.633 -3.637,-6.789c-1.94,-3.153 -2.91,-6.548 -4.365,-8.73c-0.807,-1.211 -3.401,-7.141 -4.608,-10.67c-1.035,-3.027 -2.263,-6.143 -3.152,-9.215c-1.321,-4.56 -2.929,-10.109 -4.608,-14.55c-2.334,-6.175 -8.888,-6.319 -11.882,-0.242c-2.21,4.485 0.779,11.323 1.697,17.217c-3.021,-4.211 -8.706,-0.37 -9.457,2.667c-0.925,3.744 -0.311,9.036 0.243,12.853c0.314,2.166 1.473,4.894 1.94,7.032c0.581,2.664 1.217,5.615 1.94,8.245c0.683,2.488 1.923,6.259 2.667,8.73c1.008,3.347 1.596,8.001 2.425,11.397c0.519,2.126 1.631,4.866 1.94,7.033c0.729,5.114 0.161,12.052 0.242,17.217c0.066,4.147 0.069,9.679 0.243,13.822c0.322,7.649 0.423,17.914 1.697,25.462c0.641,3.794 2.91,8.551 3.395,12.368c1.826,14.363 -2.425,48.499 -0.727,48.257c1.697,-0.243 53.592,0.242 53.107,-0.243l0,0Z" style="fill:#fff;fill-rule:nonzero;stroke:#000;stroke-width:1.15px;"/><path id="path3405" d="M125.115,30.805c-1.994,11.004 -5.645,26.667 -9.943,52.379" style="fill:#fff;fill-opacity:0.133333;fill-rule:nonzero;stroke:#000;stroke-width:1.15px;"/><path id="path3407" d="M58.67,40.02c10.136,28.53 5.944,12.309 17.703,48.499" style="fill:#fff;fill-opacity:0.133333;fill-rule:nonzero;stroke:#000;stroke-width:1.15px;"/></g></g></g></svg>